<svg width="120" height="120" viewBox="0 0 120 120" fill="none" xmlns="http://www.w3.org/2000/svg">
<circle cx="60" cy="60" r="60" fill="#FFC736"/>
<path d="M39.8 63.4236H67.4V70.4406H39.8V63.4236Z" fill="#2C3E50"/>
<path d="M52.4501 52.8984V64.5933H32.9001C31.6314 64.5894 30.6039 63.5445 30.6001 62.2543V55.2374C30.6039 53.9472 31.6314 52.9023 32.9001 52.8984H52.4501Z" fill="#1D83D4"/>
<path d="M36.35 57.5762V64.5932H34.05V57.5762C34.05 56.9303 34.5649 56.4067 35.2 56.4067C35.8352 56.4067 36.35 56.9303 36.35 57.5762Z" fill="#E64C3C"/>
<path d="M40.9499 57.5762V64.5932H38.6499V57.5762C38.6499 56.9303 39.1648 56.4067 39.7999 56.4067C40.435 56.4067 40.9499 56.9303 40.9499 57.5762Z" fill="#E64C3C"/>
<path d="M45.55 57.5762V64.5932H43.25V57.5762C43.25 56.9303 43.7649 56.4067 44.4 56.4067C45.0352 56.4067 45.55 56.9303 45.55 57.5762Z" fill="#E64C3C"/>
<path d="M67.3998 59.9151V64.5931H51.2998V52.8982L67.3998 59.9151Z" fill="#F29C1F"/>
<path d="M62.593 41.2851L64.502 36.7708C64.8688 35.914 65.6991 35.3588 66.618 35.3558H83.4999V29.5083H64.7205C62.862 29.5088 61.185 30.6426 60.4655 32.3853L56.8545 41.2032L62.593 41.2851Z" fill="#2196F3"/>
<path d="M77.75 55.5529V51.7287C77.7523 50.9931 78.0927 50.3008 78.67 49.8575L82.35 47.0508L83.5 55.2372L77.75 55.5529Z" fill="#C03A2B"/>
<path d="M59.3498 41.2034L57.0498 59.5058C56.6537 59.292 56.3022 59.0021 56.0148 58.6521L51.2998 52.8982V42.3729C51.2998 41.727 51.8147 41.2034 52.4498 41.2034H59.3498Z" fill="#E64C3C"/>
<path d="M68.5501 69.2712H38.6501C36.1095 69.2712 34.05 71.3656 34.05 73.9492C34.05 76.5327 36.1095 78.6271 38.6501 78.6271H68.5501C71.0906 78.6271 73.1501 76.5327 73.1501 73.9492C73.1501 71.3656 71.0906 69.2712 68.5501 69.2712Z" fill="#35495E"/>
<path d="M67.4 51.7288V59.9154L58.66 59.9154C58.0984 59.9158 57.5454 59.7752 57.05 59.506V50.5593L67.4 51.7288Z" fill="#C03A2B"/>
<path d="M89.9065 71.6102H83.5056C82.2846 71.6117 81.1131 71.1196 80.2492 70.2421C79.3853 69.3647 78.8999 68.1739 78.8999 66.9322V63.4238C78.8999 61.4861 80.4445 59.9153 82.3499 59.9153H88.0998V65.9615C88.2499 67.782 89.0231 69.4912 90.2848 70.7915C90.4098 70.9397 90.4377 71.1486 90.356 71.3253C90.2744 71.502 90.0984 71.6135 89.9065 71.6102Z" fill="#E64C3C"/>
<path d="M82.3501 56.4067V28.9237C82.3501 27.309 83.6373 26 85.2251 26C86.8129 26 88.1001 27.309 88.1001 28.9237V56.4067H82.3501Z" fill="#1D83D4"/>
<path d="M78.9001 55.2373H88.1001V59.9153H78.9001C77.6298 59.9153 76.6001 58.8681 76.6001 57.5763C76.6001 56.2845 77.6298 55.2373 78.9001 55.2373Z" fill="#2196F3"/>
<path d="M83.5001 68.1016C82.865 68.1016 82.3501 67.578 82.3501 66.9321V64.5931C82.3501 63.9472 82.865 63.4236 83.5001 63.4236C84.1352 63.4236 84.65 63.9472 84.65 64.5931V66.9321C84.65 67.578 84.1352 68.1016 83.5001 68.1016Z" fill="#FCFEFF"/>
<path d="M67.3999 75.1189H39.7999C39.1648 75.1189 38.6499 74.5952 38.6499 73.9493C38.6499 73.3034 39.1648 72.7798 39.7999 72.7798H67.3999C68.035 72.7798 68.5499 73.3034 68.5499 73.9493C68.5499 74.5952 68.035 75.1189 67.3999 75.1189Z" fill="#547580"/>
<path d="M67.4 47.0508V51.7287H57.05V41.2034H61.65C64.8257 41.2034 67.4 43.8214 67.4 47.0508Z" fill="#2FA8CC"/>
<path d="M61.65 48.2205C61.185 48.2204 60.7658 47.9354 60.5878 47.4985C60.4098 47.0615 60.5082 46.5586 60.837 46.2241L61.987 45.0546C62.4382 44.6114 63.1555 44.6177 63.5991 45.0689C64.0427 45.52 64.0489 46.2494 63.6131 46.7083L62.4631 47.8778C62.2475 48.0971 61.955 48.2204 61.65 48.2205Z" fill="#67B9CC"/>
<path d="M60.5001 94.9999C59.865 94.9999 59.3501 94.4763 59.3501 93.8304V78.627C59.3501 77.9811 59.865 77.4575 60.5001 77.4575C61.1352 77.4575 61.6501 77.9811 61.6501 78.627V93.8304C61.6501 94.4763 61.1352 94.9999 60.5001 94.9999Z" fill="#A56A43"/>
<path d="M35.2001 94.9999C34.8079 94.9999 34.4428 94.7967 34.2314 94.4608C34.02 94.1248 33.9915 93.7025 34.1559 93.3404L41.0558 78.137C41.228 77.7576 41.5861 77.5005 41.9952 77.4624C42.4044 77.4243 42.8024 77.6111 43.0394 77.9524C43.2764 78.2937 43.3164 78.7377 43.1442 79.1171L36.2443 94.3204C36.0563 94.7347 35.6487 94.9999 35.2001 94.9999Z" fill="#A56A43"/>
<path d="M85.7999 94.9999C85.3514 94.9999 84.9437 94.7347 84.7558 94.3204L77.8558 79.1171C77.5897 78.5306 77.8415 77.8358 78.4182 77.5652C78.9949 77.2945 79.6781 77.5506 79.9442 78.137L86.8441 93.3404C87.0085 93.7025 86.98 94.1248 86.7686 94.4608C86.5572 94.7967 86.1921 94.9999 85.7999 94.9999Z" fill="#A56A43"/>
<path d="M86.95 79.7965H27.15C26.5149 79.7965 26 79.2729 26 78.627C26 77.9811 26.5149 77.4575 27.15 77.4575H86.95C87.5851 77.4575 88.1 77.9811 88.1 78.627C88.1 79.2729 87.5851 79.7965 86.95 79.7965Z" fill="#CB8252"/>
<path d="M93.8499 79.7965H91.5499C90.9148 79.7965 90.3999 79.2729 90.3999 78.627C90.3999 77.9811 90.9148 77.4575 91.5499 77.4575H93.8499C94.485 77.4575 94.9999 77.9811 94.9999 78.627C94.9999 79.2729 94.485 79.7965 93.8499 79.7965Z" fill="#CB8252"/>
</svg>
